<svg width="24" height="24" viewBox="0 0 24 24" fill="none" xmlns="http://www.w3.org/2000/svg">
    <path d="M8.20224 20.2735C6.21271 20.2295 4.63509 18.5809 4.679 16.5914V6.50457C4.7257 4.5468 6.3304 2.986 8.2891 2.99441H13.7141C14.2502 2.99441 14.763 3.21204 15.1338 3.59874L18.7738 7.39006C19.125 7.75714 19.3221 8.24565 19.3221 8.75284V16.5914C19.3352 18.5641 17.7828 20.1941 15.811 20.2743M8.20224 20.2735C8.2312 20.2735 8.26015 20.2743 8.2891 20.2743H15.811M8.20224 20.2735C8.2312 20.2735 15.811 20.2743 15.811 20.2743" stroke="white" stroke-width="1.5" stroke-linecap="round" stroke-linejoin="round"/>
    <path d="M14.1787 3.05437V5.83131C14.1778 7.18662 15.2753 8.286 16.6306 8.2888H19.26" stroke="white" stroke-width="1.5" stroke-linecap="round" stroke-linejoin="round"/>
    <path d="M14.7159 15.1413V11.5927" stroke="white" stroke-width="1.5" stroke-linecap="round" stroke-linejoin="round"/>
    <path d="M9.28363 15.1414V10.2919" stroke="white" stroke-width="1.5" stroke-linecap="round" stroke-linejoin="round"/>
    <path d="M12.0004 15.1414V13.3303" stroke="white" stroke-width="1.5" stroke-linecap="round" stroke-linejoin="round"/>
</svg>
