<svg width="24" height="24" viewBox="0 0 24 24" fill="none" xmlns="http://www.w3.org/2000/svg">
    <path d="M8.06413 17.5498C7.77459 18.8107 6.31098 20.0866 4.7381 19.0479C4.7381 19.0479 5.7565 19.953 7.82503 19.953H16.8485C17.975 19.953 18.9491 19.1676 19.1883 18.0663L20.3165 12.5173C20.6519 10.7791 19.5049 9.95438 17.9778 9.95438H11.6424C10.5187 9.95438 9.54548 10.7362 9.3045 11.8336L8.06413 17.5498Z" stroke="currentColor" stroke-width="1.5" stroke-linecap="round" stroke-linejoin="round"/>
    <path d="M7.8255 19.9535C4.84879 19.9535 3.09564 18.2041 3.09564 15.2348V8.76304C3.09564 5.79753 4.18658 4.04813 7.15582 4.04813H8.81556C9.41146 4.04813 9.97192 4.32926 10.3287 4.80561L11.0862 5.81341C11.4448 6.28883 12.0062 6.56904 12.602 6.5709H14.0031C16.5688 6.5709 17.7392 7.6964 18.0128 9.94737" stroke="currentColor" stroke-width="1.5" stroke-linecap="round" stroke-linejoin="round"/>
</svg>
