<svg width="24" height="24" viewBox="0 0 24 24" fill="none" xmlns="http://www.w3.org/2000/svg">
<g id="24 / folder">
<path id="Vector" d="M5.99805 2.99072C4.34105 2.99072 2.99805 4.33382 2.99805 5.99072V7.99072V16.9907C2.99805 19.1997 4.78905 20.9907 6.99805 20.9907H16.998C19.207 20.9907 20.998 19.1997 20.998 16.9907V7.99072C20.998 7.43842 20.55 6.99072 19.998 6.99072H14.998C14.243 6.99072 14.0001 6.74582 13.4041 5.55322C12.5011 3.74582 11.743 2.99072 9.99805 2.99072H5.99805ZM5.99805 4.99072H9.99805C10.753 4.99072 10.996 5.23562 11.592 6.42822C11.722 6.68932 11.766 6.76342 11.894 6.98142L7.96704 6.99072C7.41404 6.99072 6.96704 7.43842 6.96704 7.99072C6.96704 8.54302 7.41404 8.99072 7.96704 8.99072H14.998H18.998V16.9907C18.998 18.0957 18.103 18.9907 16.998 18.9907H6.99805C5.89305 18.9907 4.99805 18.0957 4.99805 16.9907V7.99072V5.99072C4.99805 5.43842 5.44605 4.99072 5.99805 4.99072Z" fill="currentColor"/>
</g>
</svg>
