<svg width="24" height="24" viewBox="0 0 24 24" fill="none" xmlns="http://www.w3.org/2000/svg">
  <path d="M16.8995 9.68583L18.4739 10.5375L18.8584 10.7535C19.6774 11.2137 19.6774 12.3999 18.8584 12.8601L13.6427 15.7904C12.4331 16.47 10.9601 16.47 9.75052 15.7904L4.53486 12.8601C3.71588 12.3999 3.71588 11.2137 4.53486 10.7535L4.91928 10.5375L6.4516 9.66" stroke="currentColor" stroke-width="1.44" />
  <path d="M16.9665 13.9219L18.7056 14.8063C19.5664 15.2396 19.594 16.4662 18.7536 16.9384L13.6422 19.8102C12.4326 20.4897 10.9596 20.4897 9.74996 19.8102L4.71302 16.9803C3.85817 16.5 3.90528 15.2462 4.79371 14.8324L6.54566 13.9893" stroke="currentColor" stroke-width="1.44" />
  <path d="M9.75052 3.55095L4.53486 6.48127C3.71588 6.9414 3.71588 8.12767 4.53486 8.5878L9.75052 11.5181C10.9601 12.1977 12.4331 12.1977 13.6427 11.5181L18.8584 8.5878C19.6774 8.12767 19.6774 6.9414 18.8584 6.48127L13.6427 3.55096C12.4331 2.87136 10.9601 2.87136 9.75052 3.55095Z" stroke="currentColor" stroke-width="1.44" />
</svg>
