<svg viewBox="0 0 24 24" fill="none" xmlns="http://www.w3.org/2000/svg">
    <path fill-rule="evenodd" clip-rule="evenodd" d="M12.2265 22.3974C13.9936 22.3588 15.7167 21.8707 17.2357 20.9856C17.8544 20.625 17.9704 19.8296 17.5855 19.28C17.19 18.7151 16.4383 18.6083 15.8801 18.9213C14.7494 19.5552 13.4767 19.9045 12.1727 19.933C10.6037 19.9672 9.05976 19.5354 7.73614 18.6922C6.41253 17.8489 5.36869 16.6321 4.73662 15.1957C4.10455 13.7592 3.91264 12.1675 4.18517 10.622C4.45769 9.07641 5.1824 7.64638 6.26766 6.5127C7.35291 5.37903 8.74997 4.59263 10.2822 4.25295C11.8144 3.91327 13.4129 4.03557 14.8756 4.60437C16.0912 5.07711 17.1676 5.84062 18.0133 6.82305C18.4308 7.30803 19.1737 7.46481 19.7386 7.06926C20.2882 6.68444 20.4513 5.89731 19.9932 5.34689C18.8686 3.99558 17.4163 2.94758 15.769 2.30697C13.8519 1.56147 11.7568 1.40118 9.74864 1.84638C7.74047 2.29158 5.90942 3.32227 4.48703 4.80812C3.06464 6.29397 2.1148 8.16824 1.75761 10.1939C1.40043 12.2196 1.65196 14.3057 2.48038 16.1884C3.3088 18.0712 4.67691 19.6659 6.4117 20.7711C8.14649 21.8763 10.1701 22.4423 12.2265 22.3974ZM4.8768 4.98092C6.22967 3.60805 7.95135 2.65462 9.83512 2.237C11.7661 1.80892 13.7806 1.96304 15.6239 2.67988C17.2079 3.29585 18.6043 4.30354 19.6857 5.60287C19.943 5.91205 19.9032 6.35008 19.637 6.63144C19.9033 6.35008 19.9432 5.91199 19.6858 5.60277C18.6044 4.30344 17.208 3.29575 15.624 2.67978C13.7807 1.96294 11.7662 1.80882 9.83522 2.2369C7.95141 2.65453 6.22969 3.60799 4.8768 4.98092ZM6.08989 6.12216C6.05249 6.15976 6.01543 6.19774 5.97871 6.2361C4.83875 7.42692 4.0775 8.92904 3.79124 10.5525C3.50498 12.176 3.70656 13.8479 4.37049 15.3568C5.03443 16.8656 6.13089 18.1438 7.52122 19.0295C8.91156 19.9153 10.5333 20.3688 12.1814 20.3329C13.5512 20.303 14.888 19.9361 16.0757 19.2702C16.4768 19.0453 16.9942 19.1328 17.2579 19.5094C17.4721 19.8154 17.4529 20.2177 17.2251 20.482C17.4528 20.2177 17.472 19.8155 17.2578 19.5095C16.9941 19.1329 16.4767 19.0454 16.0756 19.2703C14.8879 19.9362 13.5511 20.3031 12.1813 20.333C10.5332 20.3689 8.91146 19.9154 7.52113 19.0296C6.13079 18.1439 5.03433 16.8657 4.3704 15.3568C3.70647 13.848 3.50488 12.1761 3.79114 10.5526C4.0774 8.92914 4.83865 7.42702 5.97861 6.23619C6.01537 6.1978 6.05246 6.15979 6.08989 6.12216Z" fill="#1D3E6F"/>
</svg>
