<svg width="24" height="24" viewBox="0 0 24 24" fill="none" xmlns="http://www.w3.org/2000/svg">
    <path fill-rule="evenodd" clip-rule="evenodd" d="M18.6245 17.7964C16.8777 19.8616 14.4258 20.8862 11.9768 20.8779C11.1193 20.8751 7.29798 20.8769 5.04221 20.8779C4.37154 20.8788 3.97551 20.1316 4.3482 19.5739C4.5565 19.2619 4.82364 18.8818 5.03473 18.5847C5.24491 18.2877 5.26359 17.8982 5.08144 17.5825C4.76106 17.0268 4.28374 16.1823 4.16045 15.875C2.67996 12.674 3.25067 8.76023 5.89314 6.11869C9.50798 2.50385 15.543 2.76259 18.8103 6.89583C21.3201 10.0698 21.238 14.7065 18.6245 17.7964Z" stroke="white" stroke-width="1.5" stroke-linecap="round" stroke-linejoin="round"/>
    <path d="M15.8541 12.4912V12.5582M16.1256 12.5056C16.1256 12.6564 16.0033 12.7788 15.8524 12.7788C15.7016 12.7788 15.5793 12.6564 15.5793 12.5056C15.5793 12.3548 15.7016 12.2325 15.8524 12.2325C16.0033 12.2325 16.1256 12.3548 16.1256 12.5056Z" stroke="white" stroke-width="1.5" stroke-linecap="round" stroke-linejoin="round"/>
    <path d="M12.0084 12.4912V12.5582M12.28 12.5056C12.28 12.6564 12.1576 12.7788 12.0068 12.7788C11.856 12.7788 11.7338 12.6564 11.7338 12.5056C11.7338 12.3548 11.856 12.2325 12.0068 12.2325C12.1576 12.2325 12.28 12.3548 12.28 12.5056Z" stroke="white" stroke-width="1.5" stroke-linecap="round" stroke-linejoin="round"/>
    <path d="M8.16284 12.4912V12.5582M8.43438 12.5056C8.43438 12.6564 8.312 12.7788 8.16117 12.7788C8.01033 12.7788 7.88812 12.6564 7.88812 12.5056C7.88812 12.3548 8.01033 12.2325 8.16117 12.2325C8.312 12.2325 8.43438 12.3548 8.43438 12.5056Z" stroke="white" stroke-width="1.5" stroke-linecap="round" stroke-linejoin="round"/>
</svg>
