<svg width="24" height="24" viewBox="0 0 24 24" fill="none" xmlns="http://www.w3.org/2000/svg">
    <path fill-rule="evenodd" clip-rule="evenodd" d="M16.019 4.93263V6.95578C16.019 7.66006 16.5178 8.10279 17.2248 8.10279H19.1302C19.8364 8.10279 20.3352 7.66285 20.3352 6.95578V4.93263C20.3352 4.22555 19.8364 3.78561 19.1302 3.78561H17.2248C16.5178 3.78561 16.019 4.22555 16.019 4.93263Z" stroke="currentColor" stroke-width="1.5" stroke-linecap="round" stroke-linejoin="round"/>
    <path fill-rule="evenodd" clip-rule="evenodd" d="M3.05624 4.93263V6.95578C3.05624 7.66006 3.55503 8.10279 4.26211 8.10279H6.16757C6.87371 8.10279 7.37343 7.66285 7.37343 6.95578V4.93263C7.37343 4.22555 6.87371 3.78561 6.16757 3.78561H4.26211C3.55503 3.78561 3.05624 4.22555 3.05624 4.93263Z" stroke="currentColor" stroke-width="1.5" stroke-linecap="round" stroke-linejoin="round"/>
    <path fill-rule="evenodd" clip-rule="evenodd" d="M3.05624 17.8954V19.9185C3.05624 20.6227 3.55503 21.0655 4.26211 21.0655H6.16757C6.87371 21.0655 7.37343 20.6256 7.37343 19.9185V17.8954C7.37343 17.1882 6.87371 16.7484 6.16757 16.7484H4.26211C3.55503 16.7484 3.05624 17.1882 3.05624 17.8954Z" stroke="currentColor" stroke-width="1.5" stroke-linecap="round" stroke-linejoin="round"/>
    <path d="M7.39449 5.92688H16.0279M7.39449 18.9069H10.4236M5.25 8.10237V16.7488M18.1789 8.10237V10.2106" stroke="currentColor" stroke-width="1.5" stroke-linecap="round" stroke-linejoin="round"/>
    <path fill-rule="evenodd" clip-rule="evenodd" d="M15.2693 20.8074L14.3315 20.9644C13.6458 21.0792 13.0397 20.5076 13.1144 19.8155L13.219 18.8487C13.2694 18.3817 13.4647 17.9427 13.7775 17.5925L17.2429 13.7535C17.7258 13.2314 18.5403 13.2006 19.0615 13.6835L19.9237 14.4811C20.4448 14.964 20.4766 15.7785 19.9936 16.2997L16.5732 20.0882C16.2332 20.4693 15.7727 20.7233 15.2693 20.8074Z" stroke="currentColor" stroke-width="1.5" stroke-linecap="round" stroke-linejoin="round"/>
</svg>
