<svg width="24" height="24" viewBox="0 0 24 24" fill="none" xmlns="http://www.w3.org/2000/svg">
    <path d="M11.8837 5.9239L12.5378 4.74096C12.9998 3.90528 14.1338 3.7453 14.8086 4.42099L19.5799 9.19228C20.2556 9.86704 20.0956 11.001 19.2599 11.4631L18.077 12.1172C17.4229 12.4795 16.607 12.3647 16.0781 11.8358L12.166 7.92276C11.6362 7.39387 11.5214 6.5789 11.8837 5.9239Z" stroke="currentColor" stroke-width="1.5" stroke-linecap="round" stroke-linejoin="round"/>
    <path d="M15.8245 11.5777L14.6961 18.3987C14.6133 18.8617 14.2209 19.1911 13.7579 19.1845C12.0846 19.1337 8.14147 19.1469 5.18083 19.9647C4.83263 20.0597 4.50231 19.9458 4.28021 19.7237C4.05247 19.496 3.9386 19.1657 4.03365 18.8175C4.8571 15.8634 4.86368 11.9137 4.81945 10.2461C4.80722 9.77743 5.1366 9.38406 5.59961 9.30219L12.4206 8.17383" stroke="currentColor" stroke-width="1.5" stroke-linecap="round" stroke-linejoin="round"/>
    <path d="M10.9856 13.0152C11.5606 13.5893 11.5606 14.5219 10.9856 15.0969C10.4106 15.6719 9.47891 15.6719 8.90391 15.0969C8.32891 14.5219 8.32891 13.5893 8.90391 13.0152C9.47891 12.4402 10.4106 12.4402 10.9856 13.0152Z" stroke="currentColor" stroke-width="1.5" stroke-linecap="round" stroke-linejoin="round"/>
    <path d="M8.90357 15.0957L4.27344 19.7258" stroke="currentColor" stroke-width="1.5" stroke-linecap="round" stroke-linejoin="round"/>
</svg>
