<svg width="24" height="24" viewBox="0 0 24 24" fill="none" xmlns="http://www.w3.org/2000/svg">
    <path d="M8.97211 9.94141L6.29388 10.7767C6.07599 10.8493 5.86717 10.9673 5.70376 11.1398C5.42231 11.4212 5.28613 11.7935 5.28613 12.1566C5.28613 12.5289 5.42231 12.9011 5.70376 13.1825L10.8151 18.2939C11.3871 18.8568 12.304 18.8568 12.8669 18.2939C13.0303 18.1305 13.1574 17.9307 13.221 17.7037L14.0653 15.0255" stroke="currentColor" stroke-width="1.5" stroke-linecap="round" stroke-linejoin="round"/>
    <path d="M8.26314 15.7383L4.56445 19.437" stroke="currentColor" stroke-width="1.5" stroke-linecap="round" stroke-linejoin="round"/>
    <path d="M11.2773 8.11495C11.6496 7.7064 11.7494 7.11629 11.5406 6.5988L11.5315 6.57156C11.3046 6.02683 11.4317 5.40948 11.8402 5.00093L12.4122 4.42897C12.9751 3.85701 13.892 3.85701 14.464 4.42897L19.5753 9.54032C20.1382 10.1032 20.1382 11.0202 19.5753 11.583L19.0034 12.155C18.5857 12.5726 17.9684 12.6906 17.4327 12.4728L17.3964 12.4546C16.888 12.2458 16.2979 12.3547 15.8894 12.727" stroke="currentColor" stroke-width="1.5" stroke-linecap="round" stroke-linejoin="round"/>
    <path d="M19.0372 19.9981L4 4.96094" stroke="currentColor" stroke-width="1.5" stroke-linecap="round" stroke-linejoin="round"/>
</svg>
