<svg width="24" height="24" viewBox="0 0 24 24" fill="none" xmlns="http://www.w3.org/2000/svg">
    <path fill-rule="evenodd" clip-rule="evenodd" d="M12.1389 4.43975L11.5469 5.03172C11.1197 5.45899 10.9907 6.10179 11.2194 6.66176L11.2335 6.69564C11.4632 7.25468 11.3342 7.89747 10.907 8.32569L9.57055 9.6621C9.39926 9.83245 9.18939 9.96044 8.95787 10.0329L5.7966 11.023C5.56602 11.0954 5.35615 11.2225 5.18486 11.3938C4.59854 11.9801 4.59854 12.9297 5.18486 13.5151L10.4853 18.8156C11.0707 19.401 12.0203 19.401 12.6066 18.8156C12.777 18.6443 12.905 18.4344 12.9775 18.2038L13.9675 15.0416C14.04 14.811 14.1671 14.6002 14.3383 14.4299L15.6747 13.0935C16.102 12.6653 16.7448 12.5363 17.3048 12.766L17.3387 12.7801C17.8986 13.0097 18.5414 12.8808 18.9687 12.4535L19.5607 11.8615C20.1461 11.2752 20.1461 10.3256 19.5607 9.74021L14.2602 4.43975C13.6748 3.85342 12.7243 3.85342 12.1389 4.43975Z" stroke="currentColor" stroke-width="1.5" stroke-linecap="round" stroke-linejoin="round"/>
    <path d="M7.83418 16.1641L4 19.9982" stroke="currentColor" stroke-width="1.5" stroke-linecap="round" stroke-linejoin="round"/>
</svg>
